<svg width="24" height="24" viewBox="0 0 24 24" fill="none" xmlns="http://www.w3.org/2000/svg">
<rect x="2" y="2" width="20" height="20" rx="4" fill="#333333"/>
<path d="M13.66 9.376C13.396 9.1 13.264 8.77 13.264 8.386C13.264 8.002 13.396 7.678 13.66 7.414C13.936 7.138 14.278 7 14.686 7C15.094 7 15.442 7.156 15.73 7.468C16.03 7.768 16.24 8.17 16.36 8.674C16.588 9.55 16.702 10.408 16.702 11.248C16.702 12.088 16.6 12.82 16.396 13.444C16.192 14.068 15.928 14.578 15.604 14.974C15.28 15.358 14.92 15.688 14.524 15.964C13.78 16.468 13.042 16.72 12.31 16.72C11.29 16.72 10.48 16.468 9.88 15.964C9.292 15.448 8.998 14.698 8.998 13.714V8.044C8.338 8.212 7.834 8.506 7.486 8.926L7 8.368C7.348 8.008 7.786 7.72 8.314 7.504C8.854 7.288 9.382 7.18 9.898 7.18C10.426 7.18 10.858 7.288 11.194 7.504C11.53 7.708 11.698 7.966 11.698 8.278V14.272C11.698 14.656 11.818 14.95 12.058 15.154C12.298 15.346 12.598 15.442 12.958 15.442C13.714 15.442 14.368 15.052 14.92 14.272C15.472 13.48 15.748 12.514 15.748 11.374C15.748 10.798 15.634 10.192 15.406 9.556C15.19 9.7 14.914 9.772 14.578 9.772C14.242 9.772 13.936 9.64 13.66 9.376Z" fill="white"/>
</svg>
